<?xml version="1.0" encoding="UTF-8"?>
<!DOCTYPE svg PUBLIC "-//W3C//DTD SVG 1.1//EN" "http://www.w3.org/Graphics/SVG/1.1/DTD/svg11.dtd">
<!-- Creator: CorelDRAW 2019 (64-Bit) -->
<svg xmlns="http://www.w3.org/2000/svg" xml:space="preserve" width="400px" height="480px" version="1.1" style="shape-rendering:geometricPrecision; text-rendering:geometricPrecision; image-rendering:optimizeQuality; fill-rule:evenodd; clip-rule:evenodd"
viewBox="0 0 400 480.32"
 xmlns:xlink="http://www.w3.org/1999/xlink"
 xmlns:xodm="http://www.corel.com/coreldraw/odm/2003">
 <defs>
  <style type="text/css">
   <![CDATA[
    .fil6 {fill:#00499D}
    .fil0 {fill:#999999}
    .fil3 {fill:#E50012}
    .fil2 {fill:#EF8200}
    .fil1 {fill:white}
    .fil7 {fill:#00499D;fill-rule:nonzero}
    .fil5 {fill:#E50012;fill-rule:nonzero}
    .fil4 {fill:white;fill-rule:nonzero}
   ]]>
  </style>
 </defs>
 <g id="Layer_x0020_1">
  <metadata id="CorelCorpID_0Corel-Layer"/>
  <path class="fil0" d="M200 0c110.46,0 200,89.54 200,200 0,110.45 -89.54,200 -200,200 -110.46,0 -200,-89.55 -200,-200 0,-110.46 89.54,-200 200,-200z"/>
  <path class="fil1" d="M200 5.43c107.46,0 194.57,87.11 194.57,194.57 0,107.46 -87.11,194.57 -194.57,194.57 -107.46,0 -194.57,-87.11 -194.57,-194.57 0,-107.46 87.11,-194.57 194.57,-194.57z"/>
  <path class="fil2" d="M200 53.09c81.14,0 146.91,65.77 146.91,146.91 0,81.14 -65.77,146.91 -146.91,146.91 -81.14,0 -146.91,-65.77 -146.91,-146.91 0,-81.14 65.77,-146.91 146.91,-146.91z"/>
  <path class="fil3" d="M200 5.43c95.62,0 175.13,68.98 191.48,159.89l-43.94 7.86c-12.64,-70.01 -73.89,-123.12 -147.54,-123.12 -73.62,0 -134.85,53.06 -147.53,123.03l-43.96 -7.76c16.36,-90.92 95.87,-159.9 191.49,-159.9z"/>
  <path class="fil4" d="M22.34 148.14l3.09 -9.21c0.61,-1.83 1.14,-3.16 1.59,-4.01 0.46,-0.85 1.05,-1.54 1.76,-2.09 0.72,-0.54 1.56,-0.92 2.52,-1.12 0.95,-0.21 1.93,-0.14 2.93,0.19 1.07,0.36 1.96,0.98 2.66,1.87 0.71,0.88 1.12,1.89 1.24,3.03 0.88,-1.26 1.94,-2.1 3.18,-2.52 1.24,-0.42 2.52,-0.41 3.86,0.04 1.05,0.35 1.98,0.94 2.81,1.76 0.83,0.82 1.4,1.75 1.71,2.8 0.31,1.04 0.33,2.2 0.05,3.48 -0.18,0.8 -0.75,2.69 -1.73,5.67l-2.63 7.84 -23.04 -7.73zm5.39 -3.38l5.31 1.78 1.03 -3.04c0.6,-1.81 0.95,-2.95 1.05,-3.4 0.17,-0.83 0.11,-1.55 -0.19,-2.16 -0.31,-0.61 -0.83,-1.03 -1.57,-1.28 -0.71,-0.24 -1.35,-0.23 -1.93,0.01 -0.57,0.24 -1.04,0.74 -1.39,1.48 -0.21,0.44 -0.68,1.76 -1.41,3.94l-0.9 2.67zm9.14 3.07l6.18 2.07 1.45 -4.31c0.56,-1.67 0.87,-2.76 0.93,-3.24 0.1,-0.73 -0.01,-1.4 -0.36,-2 -0.34,-0.6 -0.92,-1.04 -1.74,-1.31 -0.7,-0.24 -1.34,-0.26 -1.93,-0.09 -0.6,0.17 -1.11,0.54 -1.55,1.1 -0.43,0.56 -1.01,1.9 -1.72,4.02l-1.26 3.76zm32.64 -41.83l-2.87 4.46 -5.79 -1.24 -5.29 8.19 3.55 4.69 -2.82 4.38 -15.3 -21.12 2.82 -4.37 25.7 5.01zm-12.98 2.33l-9.38 -2.04 5.77 7.63 3.61 -5.59zm2.62 -28.58l6.19 -6.47c1.4,-1.46 2.57,-2.47 3.53,-3.01 1.28,-0.74 2.67,-1.11 4.15,-1.1 1.47,0.01 2.95,0.36 4.44,1.05 1.49,0.69 3.06,1.83 4.7,3.4 1.45,1.38 2.52,2.75 3.22,4.11 0.86,1.67 1.3,3.28 1.31,4.85 0.01,1.19 -0.32,2.46 -0.98,3.82 -0.5,1.02 -1.37,2.18 -2.62,3.49l-6.38 6.66 -17.56 -16.8zm6.38 -0.72l11.62 11.12 2.52 -2.63c0.95,-0.99 1.57,-1.75 1.88,-2.3 0.41,-0.71 0.61,-1.42 0.63,-2.12 0.02,-0.71 -0.25,-1.56 -0.81,-2.55 -0.55,-0.99 -1.51,-2.14 -2.87,-3.43 -1.36,-1.3 -2.51,-2.18 -3.47,-2.63 -0.95,-0.46 -1.84,-0.67 -2.66,-0.63 -0.81,0.04 -1.61,0.32 -2.39,0.85 -0.58,0.38 -1.56,1.3 -2.94,2.74l-1.51 1.58zm53.38 -18.5l-4.31 3.08 -4.93 -3.27 -7.92 5.67 1.58 5.68 -4.23 3.03 -6.48 -25.26 4.23 -3.03 22.06 14.1zm-12.92 -2.6l-7.99 -5.35 2.57 9.22 5.42 -3.87zm23.57 -2.84l-8.81 -22.65 4.44 -1.73 15.23 11.56 -5.91 -15.18 4.24 -1.65 8.81 22.65 -4.58 1.78 -14.97 -11.32 5.79 14.89 -4.24 1.65zm41.04 -13.28l-2.96 -24.13 4.73 -0.57 11.91 14.94 -1.99 -16.16 4.52 -0.56 2.96 24.13 -4.88 0.6 -11.72 -14.66 1.94 15.86 -4.51 0.55zm55.45 -0.86l-5.28 -0.4 -1.67 -5.68 -9.72 -0.74 -2.44 5.36 -5.19 -0.39 11.26 -23.52 5.18 0.39 7.86 24.98zm-8.23 -10.3l-2.69 -9.22 -3.95 8.72 6.64 0.5zm20.7 5.17l4.74 0.84c-0.16,1.62 0.08,2.9 0.72,3.86 0.64,0.97 1.68,1.64 3.11,2.05 1.51,0.42 2.75,0.42 3.7,0 0.94,-0.43 1.54,-1.07 1.78,-1.93 0.16,-0.56 0.13,-1.07 -0.08,-1.56 -0.22,-0.47 -0.69,-0.97 -1.41,-1.48 -0.5,-0.35 -1.66,-1.04 -3.48,-2.08 -2.34,-1.34 -3.9,-2.61 -4.66,-3.82 -1.06,-1.69 -1.34,-3.47 -0.81,-5.33 0.33,-1.19 0.98,-2.22 1.95,-3.07 0.96,-0.85 2.16,-1.37 3.58,-1.55 1.42,-0.19 3.02,-0.04 4.82,0.47 2.92,0.82 4.95,2.09 6.06,3.81 1.11,1.72 1.4,3.66 0.87,5.86l-4.79 -1.17c0.14,-1.27 -0.05,-2.25 -0.56,-2.97 -0.51,-0.71 -1.42,-1.25 -2.74,-1.62 -1.36,-0.39 -2.51,-0.41 -3.44,-0.05 -0.6,0.22 -0.98,0.64 -1.16,1.25 -0.15,0.55 -0.05,1.09 0.31,1.62 0.45,0.67 1.75,1.6 3.89,2.79 2.14,1.18 3.67,2.22 4.6,3.11 0.94,0.89 1.58,1.92 1.92,3.1 0.33,1.19 0.29,2.52 -0.12,3.99 -0.38,1.34 -1.1,2.5 -2.18,3.46 -1.07,0.96 -2.37,1.53 -3.89,1.72 -1.52,0.18 -3.3,-0.01 -5.33,-0.58 -2.96,-0.83 -5.04,-2.15 -6.24,-3.96 -1.2,-1.81 -1.58,-4.06 -1.16,-6.76zm29.02 18.32l11 -21.67 4.39 2.22 -11 21.68 -4.39 -2.23zm22.86 -1.65c1.44,-2.02 2.95,-3.5 4.53,-4.44 1.17,-0.69 2.43,-1.16 3.78,-1.41 1.35,-0.24 2.63,-0.23 3.83,0.04 1.61,0.36 3.22,1.11 4.83,2.26 2.92,2.08 4.61,4.65 5.07,7.71 0.46,3.06 -0.46,6.21 -2.76,9.44 -2.28,3.2 -4.94,5.09 -7.97,5.65 -3.02,0.58 -5.99,-0.18 -8.9,-2.25 -2.95,-2.1 -4.65,-4.67 -5.1,-7.71 -0.46,-3.03 0.44,-6.13 2.69,-9.29zm4.21 2.8c-1.6,2.24 -2.29,4.31 -2.08,6.21 0.21,1.9 1.12,3.42 2.71,4.56 1.6,1.13 3.32,1.49 5.17,1.08 1.84,-0.43 3.58,-1.79 5.22,-4.09 1.61,-2.27 2.33,-4.32 2.12,-6.14 -0.2,-1.83 -1.12,-3.33 -2.78,-4.51 -1.65,-1.18 -3.38,-1.56 -5.19,-1.15 -1.82,0.41 -3.54,1.76 -5.17,4.04zm17.88 29.36l18.34 -15.94 3.13 3.59 -5.73 18.24 12.29 -10.69 2.98 3.44 -18.34 15.94 -3.23 -3.71 5.6 -17.92 -12.06 10.49 -2.98 -3.44zm32.41 45.02l-2.66 -4.58 3.73 -4.6 -4.89 -8.43 -5.8 1.03 -2.61 -4.5 25.76 -4.04 2.61 4.5 -16.14 20.62zm3.83 -12.62l6.08 -7.43 -9.43 1.67 3.35 5.76zm0.72 23.76l22.76 -7.91 1.62 4.65 -18.89 6.56 4 11.51 -3.88 1.35 -5.61 -16.16z"/>
  <path class="fil5" d="M13.72 191.7l28.03 -1 0.34 9.26c0.12,3.51 0.07,5.8 -0.17,6.87 -0.37,1.66 -1.23,3.06 -2.6,4.22 -1.37,1.15 -3.17,1.77 -5.41,1.85 -1.72,0.06 -3.17,-0.21 -4.37,-0.8 -1.2,-0.59 -2.15,-1.36 -2.85,-2.32 -0.7,-0.95 -1.18,-1.94 -1.44,-2.94 -0.31,-1.37 -0.52,-3.36 -0.62,-5.97l-0.13 -3.75 -10.57 0.38 -0.21 -5.8zm23.5 4.96l-7.98 0.29 0.11 3.15c0.08,2.27 0.29,3.77 0.61,4.53 0.32,0.75 0.8,1.34 1.45,1.75 0.64,0.41 1.37,0.6 2.21,0.57 1.02,-0.04 1.85,-0.37 2.49,-1 0.65,-0.64 1.04,-1.42 1.17,-2.36 0.1,-0.69 0.12,-2.07 0.04,-4.15l-0.1 -2.78zm-22.86 22.14l27.56 -5.23 3.96 20.82 -4.66 0.88 -2.87 -15.12 -6.12 1.16 2.67 14.06 -4.66 0.89 -2.67 -14.07 -7.47 1.42 2.98 15.67 -4.66 0.89 -4.06 -21.37zm4.53 26.75l26.39 -9.53 1.9 5.27 -13.68 17.47 17.68 -6.39 1.82 5.04 -26.38 9.53 -1.97 -5.44 13.41 -17.18 -17.35 6.27 -1.82 -5.04zm21.25 50.68l-2.75 -5.61 4.65 -5.03 -5.06 -10.31 -6.78 0.68 -2.7 -5.5 30.08 -2.39 2.69 5.5 -20.13 22.66zm5.32 -14.42l7.57 -8.14 -11.02 1.1 3.45 7.04zm-3.25 17.26l22.72 -16.45 3.29 4.54 -8.32 20.57 15.23 -11.02 3.14 4.34 -22.73 16.45 -3.39 -4.7 8.14 -20.21 -14.94 10.82 -3.14 -4.34zm34.34 25.89l3.45 -3.25 8.52 9.06 -8.16 7.67c-1.67,-0.09 -3.61,-0.67 -5.82,-1.75 -2.21,-1.07 -4.12,-2.46 -5.73,-4.18 -2.05,-2.18 -3.39,-4.5 -4.02,-6.97 -0.62,-2.46 -0.47,-4.89 0.43,-7.27 0.91,-2.39 2.34,-4.51 4.31,-6.36 2.13,-2 4.45,-3.32 6.97,-3.98 2.51,-0.64 5.04,-0.51 7.57,0.41 1.94,0.7 3.84,2.05 5.71,4.04 2.43,2.59 3.8,5.11 4.1,7.57 0.3,2.46 -0.29,4.78 -1.78,6.96l-4.72 -3.47c0.73,-1.23 1.01,-2.53 0.83,-3.89 -0.18,-1.35 -0.83,-2.64 -1.98,-3.85 -1.72,-1.84 -3.67,-2.76 -5.83,-2.77 -2.16,0 -4.37,1.05 -6.62,3.17 -2.44,2.28 -3.74,4.54 -3.92,6.78 -0.18,2.24 0.56,4.25 2.23,6.04 0.83,0.88 1.83,1.6 3,2.16 1.17,0.58 2.3,0.94 3.38,1.12l2.6 -2.43 -4.52 -4.81zm22.64 18.77l2.76 -3.86 10.11 7.23 -6.51 9.11c-1.65,0.24 -3.67,0.04 -6.05,-0.58 -2.37,-0.62 -4.52,-1.62 -6.44,-2.99 -2.43,-1.74 -4.19,-3.75 -5.29,-6.05 -1.08,-2.29 -1.42,-4.71 -0.99,-7.22 0.42,-2.52 1.42,-4.88 2.99,-7.07 1.7,-2.38 3.72,-4.13 6.06,-5.26 2.34,-1.12 4.84,-1.48 7.5,-1.07 2.04,0.31 4.17,1.25 6.39,2.84 2.89,2.07 4.72,4.28 5.5,6.63 0.76,2.35 0.64,4.74 -0.4,7.18l-5.3 -2.49c0.48,-1.35 0.49,-2.68 0.06,-3.98 -0.44,-1.29 -1.34,-2.42 -2.69,-3.39 -2.05,-1.46 -4.14,-1.99 -6.26,-1.58 -2.13,0.42 -4.09,1.88 -5.89,4.4 -1.94,2.71 -2.78,5.18 -2.52,7.41 0.26,2.24 1.38,4.06 3.37,5.49 0.98,0.7 2.1,1.21 3.36,1.54 1.26,0.33 2.44,0.47 3.54,0.44l2.06 -2.9 -5.36 -3.83zm21.72 -6.74l5.19 2.59 -6.8 13.6c-1.08,2.16 -1.71,3.59 -1.91,4.29 -0.29,1.14 -0.19,2.23 0.32,3.26 0.52,1.04 1.49,1.91 2.92,2.62 1.45,0.73 2.69,0.98 3.73,0.76 1.03,-0.22 1.83,-0.71 2.41,-1.5 0.58,-0.78 1.36,-2.16 2.36,-4.15l6.94 -13.89 5.19 2.6 -6.6 13.19c-1.51,3.01 -2.71,5.08 -3.61,6.18 -0.9,1.1 -1.94,1.9 -3.12,2.38 -1.18,0.49 -2.52,0.67 -4.02,0.55 -1.52,-0.12 -3.28,-0.68 -5.3,-1.69 -2.43,-1.22 -4.14,-2.42 -5.12,-3.61 -0.98,-1.18 -1.62,-2.39 -1.91,-3.65 -0.29,-1.25 -0.3,-2.41 -0.05,-3.51 0.38,-1.6 1.28,-3.81 2.68,-6.62l6.7 -13.4zm14.16 37.35l8.75 -26.41 5.5 1.83 -7.26 21.9 13.63 4.52 -1.49 4.5 -19.13 -6.34zm48.93 11.83l-6.13 -1.17 -1.24 -6.73 -11.28 -2.14 -3.53 5.83 -6.02 -1.15 16.15 -25.48 6.02 1.14 6.03 29.7zm-8.33 -12.91l-1.97 -10.94 -5.74 9.48 7.71 1.46zm11.91 12.27l1.01 -28.03 5.61 0.2 11.09 19.21 0.68 -18.79 5.35 0.2 -1.01 28.03 -5.78 -0.21 -10.93 -18.84 -0.67 18.43 -5.35 -0.2zm40.49 -12.14l-0.88 -4.66 12.21 -2.32 2.09 11c-0.97,1.36 -2.5,2.68 -4.6,3.97 -2.09,1.29 -4.29,2.15 -6.61,2.59 -2.93,0.56 -5.61,0.44 -8.03,-0.35 -2.41,-0.8 -4.38,-2.23 -5.91,-4.27 -1.52,-2.04 -2.54,-4.4 -3.04,-7.05 -0.55,-2.87 -0.42,-5.54 0.38,-8.01 0.81,-2.47 2.28,-4.53 4.41,-6.17 1.63,-1.26 3.79,-2.14 6.47,-2.65 3.49,-0.66 6.36,-0.46 8.59,0.6 2.23,1.07 3.87,2.82 4.92,5.25l-5.46 2.11c-0.65,-1.28 -1.6,-2.21 -2.84,-2.79 -1.24,-0.57 -2.67,-0.71 -4.31,-0.4 -2.47,0.47 -4.3,1.62 -5.46,3.44 -1.17,1.82 -1.47,4.25 -0.89,7.29 0.62,3.28 1.83,5.59 3.62,6.95 1.79,1.35 3.88,1.8 6.29,1.35 1.18,-0.23 2.33,-0.68 3.43,-1.37 1.12,-0.68 2.03,-1.43 2.77,-2.25l-0.67 -3.49 -6.48 1.23zm44.09 -1.9l-5.87 2.12 -4.5 -5.16 -10.79 3.9 -0.07 6.81 -5.77 2.09 0.93 -30.16 5.75 -2.08 20.32 22.48zm-13.74 -6.86l-7.27 -8.42 -0.11 11.08 7.38 -2.66zm16.91 5.48l-12.36 -25.18 5.04 -2.47 18.86 11.68 -8.29 -16.88 4.81 -2.36 12.36 25.19 -5.19 2.55 -18.54 -11.44 8.12 16.55 -4.81 2.36zm16.68 -40.99l8.62 -7.53c1.71,-1.49 3.04,-2.53 4,-3.13 0.96,-0.59 1.96,-0.95 3.01,-1.09 1.05,-0.14 2.11,-0.04 3.19,0.31 1.08,0.35 2.03,0.98 2.82,1.89 0.86,0.98 1.38,2.13 1.56,3.42 0.18,1.3 -0.02,2.56 -0.59,3.79 1.64,-0.77 3.21,-1.01 4.7,-0.72 1.5,0.29 2.78,1.05 3.84,2.27 0.85,0.96 1.44,2.1 1.78,3.4 0.33,1.31 0.35,2.58 0.03,3.82 -0.31,1.23 -0.99,2.42 -2.04,3.56 -0.66,0.7 -2.37,2.28 -5.13,4.73l-7.34 6.41 -18.45 -21.13zm7.43 -0.3l4.25 4.87 2.85 -2.49c1.69,-1.48 2.73,-2.42 3.09,-2.83 0.67,-0.73 1.04,-1.5 1.1,-2.29 0.06,-0.79 -0.2,-1.52 -0.79,-2.2 -0.58,-0.65 -1.22,-1.02 -1.94,-1.1 -0.73,-0.09 -1.49,0.14 -2.28,0.69 -0.48,0.32 -1.74,1.38 -3.78,3.17l-2.5 2.18zm7.32 8.38l4.95 5.67 4.03 -3.53c1.57,-1.37 2.53,-2.28 2.88,-2.74 0.54,-0.68 0.82,-1.42 0.84,-2.22 0.01,-0.81 -0.3,-1.59 -0.96,-2.34 -0.56,-0.64 -1.18,-1.04 -1.89,-1.2 -0.69,-0.17 -1.43,-0.1 -2.2,0.22 -0.77,0.31 -2.15,1.34 -4.13,3.07l-3.52 3.07zm25.81 -6.15l-21.39 -18.15 13.7 -16.16 3.62 3.07 -9.96 11.74 4.75 4.03 9.26 -10.92 3.62 3.07 -9.26 10.91 5.79 4.92 10.32 -12.17 3.62 3.07 -14.07 16.59zm17.41 -20.71l-23.49 -15.33 3.07 -4.7 22.18 0.41 -15.74 -10.28 2.93 -4.48 23.49 15.34 -3.17 4.85 -21.78 -0.37 15.44 10.08 -2.93 4.48zm13.41 -45.76l3.82 -4.43c2.47,2.04 3.98,4.28 4.54,6.71 0.56,2.44 0.22,5.06 -1.03,7.86 -1.54,3.48 -3.98,5.82 -7.3,7.03 -3.32,1.2 -7,0.9 -11.04,-0.89 -4.26,-1.9 -7.08,-4.5 -8.45,-7.79 -1.36,-3.3 -1.23,-6.78 0.4,-10.45 1.42,-3.2 3.51,-5.39 6.25,-6.56 1.63,-0.71 3.6,-0.9 5.92,-0.58l-1.1 5.77c-1.46,-0.28 -2.8,-0.1 -4,0.54 -1.21,0.64 -2.13,1.66 -2.75,3.06 -0.86,1.95 -0.88,3.83 -0.05,5.64 0.82,1.81 2.76,3.4 5.82,4.76 3.23,1.43 5.81,1.86 7.71,1.28 1.91,-0.58 3.28,-1.82 4.13,-3.73 0.62,-1.4 0.72,-2.81 0.3,-4.21 -0.43,-1.4 -1.48,-2.74 -3.17,-4.01zm20.13 -30.91l-1.66 6.02 -6.82 0.68 -3.06 11.06 5.52 4 -1.64 5.91 -24.07 -18.2 1.64 -5.9 30.09 -3.57zm-13.55 7.24l-11.06 1.07 8.97 6.49 2.09 -7.56zm14.1 -10.73l-27.98 -2.13 0.43 -5.59 19.64 -10.32 -18.74 -1.43 0.4 -5.34 27.97 2.13 -0.43 5.77 -19.27 10.17 18.38 1.4 -0.4 5.34zm0.41 -54.9l0.48 6.22 -6.18 2.96 0.87 11.44 6.55 1.89 0.46 6.11 -28.81 -8.95 -0.47 -6.1 27.1 -13.57zm-10.29 11.41l-10.05 4.75 10.65 3.07 -0.6 -7.82z"/>
  <polygon class="fil6" points="323.81,277.66 76.19,277.65 199.94,53.09 "/>
  <path class="fil7" d="M69.92 422.12l23.27 0c4.62,0 8.05,0.19 10.31,0.57 2.27,0.4 4.29,1.19 6.08,2.4 1.79,1.22 3.28,2.83 4.47,4.85 1.19,2.02 1.79,4.29 1.79,6.8 0,2.71 -0.73,5.21 -2.2,7.48 -1.46,2.27 -3.45,3.97 -5.96,5.1 3.54,1.05 6.25,2.81 8.16,5.3 1.9,2.49 2.84,5.42 2.84,8.79 0,2.66 -0.61,5.23 -1.84,7.74 -1.23,2.5 -2.91,4.51 -5.05,6.01 -2.13,1.49 -4.76,2.41 -7.89,2.76 -1.95,0.21 -6.67,0.34 -14.16,0.4l-19.82 0 0 -58.2zm11.78 9.67l0 13.42 7.7 0c4.56,0 7.41,-0.07 8.52,-0.21 2,-0.23 3.59,-0.92 4.74,-2.07 1.15,-1.15 1.72,-2.66 1.72,-4.52 0,-1.81 -0.5,-3.26 -1.49,-4.38 -0.99,-1.12 -2.47,-1.8 -4.42,-2.03 -1.16,-0.14 -4.51,-0.21 -10.02,-0.21l-6.75 0zm0 23.09l0 15.6 10.89 0c4.23,0 6.93,-0.12 8.06,-0.35 1.75,-0.33 3.17,-1.1 4.27,-2.33 1.1,-1.25 1.65,-2.89 1.65,-4.96 0,-1.76 -0.42,-3.24 -1.27,-4.46 -0.84,-1.21 -2.07,-2.11 -3.67,-2.66 -1.6,-0.56 -5.08,-0.84 -10.43,-0.84l-9.5 0zm60.18 25.44l0 -58.2 11.4 0 23.95 39 0 -39 10.89 0 0 58.2 -11.77 0 -23.58 -38.26 0 38.26 -10.89 0zm71.96 0l0 -58.2 18.84 0c7.14,0 11.78,0.29 13.95,0.87 3.33,0.88 6.12,2.78 8.37,5.7 2.25,2.93 3.37,6.71 3.37,11.34 0,3.58 -0.65,6.57 -1.93,9.01 -1.3,2.44 -2.94,4.35 -4.93,5.74 -1.99,1.38 -4.03,2.3 -6.09,2.75 -2.8,0.56 -6.85,0.84 -12.16,0.84l-7.64 0 0 21.95 -11.78 0zm11.78 -48.36l0 16.58 6.41 0c4.62,0 7.69,-0.31 9.25,-0.92 1.56,-0.61 2.78,-1.56 3.66,-2.88 0.88,-1.3 1.32,-2.8 1.32,-4.53 0,-2.13 -0.62,-3.88 -1.85,-5.26 -1.25,-1.38 -2.81,-2.25 -4.72,-2.6 -1.39,-0.26 -4.19,-0.39 -8.42,-0.39l-5.65 0zm55.69 -9.84l23.27 0c4.62,0 8.05,0.19 10.31,0.57 2.28,0.4 4.3,1.19 6.08,2.4 1.79,1.22 3.28,2.83 4.47,4.85 1.19,2.02 1.79,4.29 1.79,6.8 0,2.71 -0.73,5.21 -2.19,7.48 -1.47,2.27 -3.46,3.97 -5.96,5.1 3.53,1.05 6.24,2.81 8.15,5.3 1.9,2.49 2.85,5.42 2.85,8.79 0,2.66 -0.61,5.23 -1.85,7.74 -1.23,2.5 -2.91,4.51 -5.05,6.01 -2.12,1.49 -4.75,2.41 -7.88,2.76 -1.95,0.21 -6.68,0.34 -14.17,0.4l-19.82 0 0 -58.2zm11.79 9.67l0 13.42 7.69 0c4.57,0 7.41,-0.07 8.52,-0.21 2.01,-0.23 3.59,-0.92 4.74,-2.07 1.15,-1.15 1.72,-2.66 1.72,-4.52 0,-1.81 -0.5,-3.26 -1.49,-4.38 -0.99,-1.12 -2.46,-1.8 -4.41,-2.03 -1.17,-0.14 -4.51,-0.21 -10.03,-0.21l-6.74 0zm0 23.09l0 15.6 10.89 0c4.22,0 6.92,-0.12 8.06,-0.35 1.74,-0.33 3.17,-1.1 4.26,-2.33 1.1,-1.25 1.66,-2.89 1.66,-4.96 0,-1.76 -0.42,-3.24 -1.28,-4.46 -0.84,-1.21 -2.07,-2.11 -3.67,-2.66 -1.6,-0.56 -5.08,-0.84 -10.43,-0.84l-9.49 0z"/>
 </g>
</svg>
